<?xml version="1.0" encoding="UTF-8"?><svg id="Layer_2" xmlns="http://www.w3.org/2000/svg" viewBox="0 0 762.04 125.78"><defs><style>.cls-1{fill:#fff;}</style></defs><g id="Layer_1-2"><path class="cls-1" d="m274.98,75.93c-3.92,3.84-7.8,5.48-12.97,5.48-9.37,0-15.42-6.67-15.42-16.98s6.59-17.18,16.02-17.18c4.88,0,8.71,1.61,12.06,5.07l.41.42,6.42-8.66-.31-.3c-4.92-4.83-11.3-7.28-18.97-7.28-16.01,0-27.64,11.7-27.64,27.83s10.74,27.93,26.73,27.93c8.17,0,14.58-2.57,20.18-8.08l.32-.31-6.42-8.33-.4.39Z"/><path class="cls-1" d="m327.91,65.61c0,9.96-4.69,15.68-12.85,15.68-7.54,0-11.36-4.6-11.36-13.67v-30.14h-12.21v31.08c0,14.43,7.13,23.04,19.07,23.04,7.25,0,12.85-2.78,16.67-8.26l.34,6.97h11.15v-52.83h-10.81v28.13Z"/><path class="cls-1" d="m366.58,46.6l-.26-9.13h-11.79v52.83h12.21v-25.52c0-5.25,1.51-9.33,4.49-12.11,4.46-4.17,11.06-4.4,14.59-4.17l.53.04v-11.86h-.5c-8.72,0-15.19,3.34-19.27,9.92Z"/><path class="cls-1" d="m416.54,59.13c-6.04-1.35-11.26-2.51-11.26-6.76,0-3.65,3.52-5.83,9.41-5.83,5.34,0,9.82,1.83,13.67,5.58l.4.39,6.33-8.03-.33-.31c-5.3-5.09-12.16-7.67-20.37-7.67-12.38,0-21.03,6.77-21.03,16.47,0,11.89,10.18,14.03,18.36,15.76,6.27,1.32,11.68,2.46,11.68,7.25,0,5.33-5.9,6.13-9.41,6.13-6.09,0-10.89-2.09-15.57-6.79l-.38-.38-6.87,7.89.34.33c4.3,4.23,10.75,9.09,22.58,9.09,12.5,0,21.23-6.98,21.23-16.98,0-11.96-10.41-14.28-18.78-16.15Z"/><path class="cls-1" d="m469.68,36.55c-15.49,0-26.73,11.79-26.73,28.03,0,17.09,10.69,28.13,27.23,28.13,9.45,0,16.5-2.89,22.2-9.1l.29-.32-6.43-7.79-.39.38c-4.43,4.35-9.01,6.29-14.87,6.29-9.2,0-14.85-5.06-15.96-14.27h39.79v-.5c0-.49.02-.96.05-1.43.03-.49.05-.97.05-1.48,0-16.97-9.9-27.93-25.23-27.93Zm-14.42,21.94c1.54-7.71,7.11-12.66,14.32-12.66s12.09,4.61,13.15,12.66h-27.47Z"/><path class="cls-1" d="m520.83,33.5c0-6.25,3.1-9.84,8.51-9.84,2.97,0,5.5.91,7.96,2.88l.45.36,5.34-9.21-.37-.26c-4.2-3-8.85-4.46-14.22-4.46-12.45,0-19.88,7.88-19.88,21.07v3.44h-8.48l-2.77,10.81h11.25v43.43h12.21v-43.43h18.21v-10.81h-18.21v-3.98Z"/><path class="cls-1" d="m568.85,36.2c-13.83,0-27.83,9.66-27.83,28.13s13.95,28.03,27.73,28.03,27.73-9.63,27.73-28.03-13.9-28.13-27.63-28.13Zm-.1,45.61c-7.81,0-15.72-6.01-15.72-17.48s7.96-17.58,15.82-17.58c9.2,0,15.62,7.19,15.62,17.48,0,11.54-7.91,17.58-15.72,17.58Z"/><path class="cls-1" d="m620.14,46.6l-.26-9.13h-11.79v52.83h12.21v-25.52c0-5.25,1.51-9.33,4.49-12.11,4.46-4.17,11.05-4.4,14.59-4.17l.53.04v-11.86h-.5c-8.72,0-15.19,3.34-19.26,9.92Z"/><path class="cls-1" d="m686.78,44.58c-4.19-5.58-10.37-8.52-17.98-8.52-14.68,0-25.74,11.83-25.74,27.53s10.5,27.33,25.53,27.33c7.43,0,13.74-3.03,17.94-8.57v5.15c0,9.87-5.39,14.67-16.47,14.67-4.81,0-9.54-1.07-14.03-3.17l-.49-.23-3.81,10.08.42.2c5.39,2.53,11.32,3.77,18.12,3.77,18.36,0,28.47-9.21,28.47-25.92v-49.43h-11.77l-.18,7.11Zm-15.59,35.92c-8.43,0-14.32-6.94-14.32-16.88s6.22-16.68,15.12-16.68,14.42,6.55,14.42,16.68-6.12,16.88-15.22,16.88Z"/><path class="cls-1" d="m736.81,36.55c-15.49,0-26.73,11.79-26.73,28.03,0,17.09,10.69,28.13,27.23,28.13,9.45,0,16.51-2.89,22.2-9.1l.29-.32-6.43-7.79-.39.38c-4.43,4.35-9.01,6.29-14.87,6.29-9.2,0-14.85-5.06-15.96-14.27h39.79v-.5c0-.49.02-.96.05-1.43.03-.49.05-.97.05-1.48,0-16.97-9.9-27.93-25.23-27.93Zm-14.42,21.94c1.54-7.71,7.1-12.66,14.32-12.66s12.09,4.61,13.15,12.66h-27.47Z"/><path class="cls-1" d="m149.38,40.39s39.9-6.35,46.2-24.88h-59.99V0H0l16.7,20.45v19.61s41.74-2.19,57.89,10.17c22.1,20.69-24.86,48.65-24.86,48.65l-8.05,26.91c12.59-12.11,36.59-27.77,80.6-27.02-16.75,5.34-33.58,13.69-46.69,27.02h88.96l-8.38-26.91s-64.47-38.39-6.79-58.48h0Z"/></g></svg>