<svg width="285" height="80" viewBox="0 0 285 80" fill="none" xmlns="http://www.w3.org/2000/svg">
<path d="M61.0864 30.6538C61.0864 30.6538 77.4204 28.0612 80 20.4998H54.978V14.5H0L6.77266 22.4104V30.5152C6.77266 30.5152 25.0987 28.6595 30.6761 34.3761C32.4669 36.2118 33.2517 38.3447 33.3284 40.5375C32.454 47.5903 20.7831 54.5184 20.7831 54.5184L17.6856 64.4351C23.0091 59.6338 32.7498 54.1804 49.9942 54.4756C43.1388 56.6563 36.2457 60.0626 30.8793 65.5H67.2953L63.8661 54.5194C63.8661 54.5194 37.4727 38.8543 61.0874 30.6548L61.0864 30.6538Z" fill="white"/>
<path fill-rule="evenodd" clip-rule="evenodd" d="M270.486 43.2021H284.964V42.9107C284.964 42.7398 284.972 42.5765 284.981 42.4048L284.982 42.4018C284.991 42.2329 285 42.0557 285 41.8683C285 38.702 284.052 36.1719 282.399 34.4308C280.745 32.6882 278.411 31.764 275.697 31.764C270.319 31.764 265.846 35.7039 265.846 41.9042C265.846 45.0574 266.852 47.6075 268.626 49.3702C270.4 51.1328 272.915 52.0804 275.879 52.0804C279.267 52.0804 281.903 51.085 284.047 48.7871L284.221 48.5998L281.737 45.644L281.507 45.8655C279.847 47.4667 278.207 48.0828 276.171 48.0828C274.492 48.0828 273.157 47.6309 272.198 46.7744C271.299 45.9713 270.703 44.7855 270.486 43.2021ZM270.585 39.8874H280.32C280.125 38.6089 279.643 37.5675 278.917 36.8327C278.135 36.0411 277.048 35.5819 275.66 35.5819C273.125 35.5819 271.173 37.2541 270.585 39.8874Z" fill="white"/>
<path fill-rule="evenodd" clip-rule="evenodd" d="M257.153 48.7874C255.736 50.5429 253.656 51.6131 251.03 51.6131C248.228 51.6131 245.967 50.5072 244.41 48.707C242.857 46.9115 242.019 44.4416 242.019 41.7245C242.019 36.2092 245.726 31.764 251.103 31.764C253.772 31.764 255.836 32.8155 257.248 34.5811L257.306 32.2672H261.647V50.0636C261.647 53.2901 260.621 55.6519 258.824 57.2022C257.034 58.7467 254.521 59.449 251.614 59.449C249.167 59.449 247.079 58.9734 245.248 58.0893L245.009 57.9742L246.415 54.1528L246.711 54.2946C248.099 54.9611 249.732 55.4154 251.541 55.4154C253.277 55.4154 254.672 55.0616 255.631 54.2663C256.58 53.4792 257.153 52.2161 257.153 50.2793V48.7874ZM255.576 46.0658C256.545 45.0635 257.153 43.5849 257.153 41.6885C257.153 39.7852 256.596 38.3241 255.689 37.3422C254.785 36.3624 253.509 35.8335 252.015 35.8335C250.487 35.8335 249.144 36.397 248.182 37.4002C247.22 38.4037 246.622 39.8654 246.622 41.6885C246.622 43.5179 247.178 45.0003 248.085 46.0211C248.989 47.0394 250.257 47.6155 251.723 47.6155C253.254 47.6155 254.606 47.0681 255.576 46.0658Z" fill="white"/>
<path fill-rule="evenodd" clip-rule="evenodd" d="M233.086 35.3124C234.93 32.5932 237.658 31.9797 239.967 31.9797H240.263V36.5008L239.947 36.4798C238.36 36.3744 236.656 36.6153 235.359 37.4734C234.08 38.3194 233.152 39.7944 233.152 42.2637V51.6131H228.658V32.2672H232.997L233.086 35.3124Z" fill="white"/>
<path fill-rule="evenodd" clip-rule="evenodd" d="M214.266 52.0804C208.869 52.0804 204.051 48.3003 204.051 41.9402C204.051 35.5448 208.832 31.764 214.303 31.764C219.701 31.764 224.481 35.5095 224.481 41.9402C224.481 48.2623 219.739 52.0804 214.266 52.0804ZM214.266 48.0828C217.194 48.0828 219.878 45.8141 219.878 41.9042C219.878 38.0267 217.3 35.7616 214.303 35.7616C211.338 35.7616 208.654 38.0314 208.654 41.9402C208.654 45.8153 211.267 48.0828 214.266 48.0828Z" fill="white"/>
<path fill-rule="evenodd" clip-rule="evenodd" d="M192.323 32.2672H189.4L188.37 36.157H192.323V51.6131H196.816V36.157H203.235V32.2672H196.816V31.049C196.816 29.9483 197.113 29.1557 197.595 28.6407C198.075 28.1285 198.773 27.8538 199.657 27.8538C200.714 27.8538 201.563 28.1867 202.356 28.7983L202.621 29.0032L204.609 25.6814L204.385 25.5267C202.987 24.5581 201.36 24 199.365 24C197.17 24 195.399 24.6673 194.178 25.9278C192.959 27.1866 192.323 29.0008 192.323 31.2287V32.2672Z" fill="white"/>
<path fill-rule="evenodd" clip-rule="evenodd" d="M172.824 43.2021H187.302V42.9107C187.302 42.7398 187.311 42.5765 187.32 42.4048L187.32 42.4014C187.329 42.2327 187.339 42.0556 187.339 41.8683C187.339 38.702 186.391 36.1719 184.738 34.4308C183.084 32.6882 180.749 31.764 178.035 31.764C172.658 31.764 168.185 35.7039 168.185 41.9042C168.185 45.0574 169.19 47.6075 170.965 49.3702C172.739 51.1328 175.253 52.0804 178.217 52.0804C181.605 52.0804 184.242 51.085 186.385 48.7871L186.56 48.5998L184.075 45.644L183.846 45.8655C182.186 47.4667 180.546 48.0828 178.509 48.0828C176.831 48.0828 175.495 47.6309 174.537 46.7744C173.638 45.9713 173.041 44.7855 172.824 43.2021ZM172.924 39.8874H182.658C182.464 38.6089 181.982 37.5675 181.256 36.8327C180.474 36.0411 179.386 35.5819 177.999 35.5819C175.463 35.5819 173.511 37.2541 172.924 39.8874Z" fill="white"/>
<path fill-rule="evenodd" clip-rule="evenodd" d="M149.212 48.5694L151.865 45.5753L152.089 45.7958C153.788 47.4712 155.502 48.1906 157.678 48.1906C158.726 48.1906 159.566 48.0055 160.133 47.6554C160.683 47.3161 160.993 46.8149 160.993 46.1097C160.993 45.6435 160.846 45.2968 160.597 45.0189C160.34 44.7334 159.96 44.5046 159.469 44.3106C158.739 44.0224 157.836 43.8353 156.855 43.6321C156.496 43.5578 156.127 43.4813 155.752 43.397C154.382 43.0885 152.958 42.677 151.877 41.8572C150.775 41.0218 150.052 39.7802 150.052 37.8784C150.052 34.4252 153.167 31.8718 157.824 31.8718C161.145 31.8718 163.589 33.0147 165.322 34.6485L165.517 34.8319L163.067 37.881L162.833 37.6561C161.569 36.4455 160 35.6897 157.933 35.6897C156.746 35.6897 155.91 35.9264 155.379 36.2855C154.86 36.6368 154.619 37.1141 154.619 37.6628C154.619 38.0764 154.759 38.3878 155.007 38.6439C155.263 38.9087 155.644 39.1252 156.139 39.3134C156.834 39.5779 157.682 39.7636 158.605 39.9655C159.012 40.0547 159.434 40.147 159.864 40.2508C161.236 40.5821 162.658 41.0261 163.737 41.8671C164.836 42.7228 165.559 43.9737 165.559 45.8581C165.559 47.8261 164.652 49.3839 163.211 50.4412C161.777 51.493 159.824 52.0444 157.714 52.0444C153.759 52.0444 151.354 50.6395 149.411 48.762L149.212 48.5694Z" fill="white"/>
<path fill-rule="evenodd" clip-rule="evenodd" d="M140.481 35.3124C142.326 32.5932 145.054 31.9797 147.363 31.9797H147.659V36.5008L147.343 36.4798C145.756 36.3744 144.052 36.6153 142.755 37.4734C141.476 38.3194 140.547 39.7944 140.547 42.2637V51.6131H136.054V32.2672H140.393L140.481 35.3124Z" fill="white"/>
<path fill-rule="evenodd" clip-rule="evenodd" d="M126.066 49.295L126.182 51.6131H130.516V32.2672H125.986V42.4434C125.986 44.459 125.435 45.8256 124.608 46.6866C123.782 47.5468 122.644 47.939 121.395 47.939C120.088 47.939 119.094 47.5546 118.422 46.7983C117.743 46.0353 117.351 44.8483 117.351 43.1623V32.2672H112.857V43.6295C112.857 46.3901 113.571 48.5064 114.84 49.9365C116.113 51.3711 117.914 52.0804 120.009 52.0804C122.56 52.0804 124.625 51.161 126.066 49.295Z" fill="white"/>
<path fill-rule="evenodd" clip-rule="evenodd" d="M109.353 34.6851L106.877 37.9677L106.635 37.7221C105.451 36.521 104.069 35.9413 102.325 35.9413C100.704 35.9413 99.2779 36.5327 98.2566 37.5734C97.2353 38.6139 96.6029 40.12 96.6029 41.9761C96.6029 43.9793 97.2464 45.4643 98.2399 46.4477C99.2348 47.4326 100.605 47.939 102.106 47.939C103.852 47.939 105.273 47.4298 106.749 46.009L106.987 45.7805L109.466 48.94L109.278 49.1214C107.29 51.0438 104.991 52.0444 101.85 52.0444C99.0651 52.0444 96.5979 51.1037 94.8263 49.3576C93.0539 47.6106 92 45.0796 92 41.9402C92 35.9893 96.3656 31.8718 102.179 31.8718C105.018 31.8718 107.357 32.7582 109.169 34.5071L109.353 34.6851Z" fill="white"/>
</svg>
