<svg width="273" height="80" viewBox="0 0 273 80" fill="none" xmlns="http://www.w3.org/2000/svg">
<path d="M15.9367 30L4 15.0216L14.2304 16.7824L15.9584 1.99806L29.023 9.2717L33.5852 0L36 12.2185C20 14.9928 20.9254 23.8045 15.944 29.9928L15.9367 30Z" fill="white"/>
<path fill-rule="evenodd" clip-rule="evenodd" d="M33.4359 65.6956C33.4359 65.6956 24.1131 64.2377 19.538 60.9257C12.8733 56.1009 10 49.8648 10 42.7927C10 28.5448 24.7788 17 42.9999 17C61.2209 17 75.9313 27.0592 75.9997 42.7927C76.0446 53.1102 71.1406 61.1191 61.9563 65.6956V72H55.2363V65.6956L50.9973 72H44.3361V65.6956L40.0971 72L33.4359 72V65.6956ZM34.1075 56.9035C40.3148 56.9035 45.3468 51.8716 45.3468 45.6643C45.3468 39.457 40.3148 34.4249 34.1075 34.4249C27.9002 34.4249 22.8682 39.457 22.8682 45.6643C22.8682 51.8716 27.9002 56.9035 34.1075 56.9035ZM68.0797 45.6643C68.0797 50.3208 64.3049 54.0956 59.6484 54.0956C54.9919 54.0956 51.217 50.3208 51.217 45.6643C51.217 41.0078 54.9919 37.2329 59.6484 37.2329C64.3049 37.2329 68.0797 41.0078 68.0797 45.6643Z" fill="white"/>
<path d="M272.892 24V51.343H269.118L269.007 48.05C267.564 50.381 265.233 51.824 262.051 51.824C256.353 51.824 252.949 47.347 252.949 41.723C252.949 36.025 256.686 31.511 262.125 31.511C265.27 31.511 267.527 32.88 268.933 35.063V24H272.892ZM262.865 48.309C266.01 48.309 268.6 46.163 268.933 42.5V40.835C268.6 37.209 266.232 35.063 263.05 35.063C259.646 35.063 257.019 37.653 257.019 41.686C257.019 45.756 259.498 48.309 262.865 48.309Z" fill="white"/>
<path d="M249.595 41.612C249.595 41.982 249.558 42.315 249.558 42.685H234.832C235.202 46.385 237.422 48.309 240.937 48.309C243.083 48.309 244.822 47.643 246.561 45.941L248.707 48.531C246.598 50.825 244.008 51.824 240.641 51.824C234.758 51.824 230.762 48.013 230.762 41.649C230.762 35.433 235.165 31.511 240.456 31.511C245.821 31.511 249.595 35.211 249.595 41.612ZM240.419 34.841C237.57 34.841 235.424 36.839 234.906 39.873H245.488C245.155 36.839 243.379 34.841 240.419 34.841Z" fill="white"/>
<path d="M229.133 32.029L220.623 51.343L217.367 58.965H213.186L217.219 49.678L209.19 32.029H213.667L219.291 45.386L224.767 32.029H229.133Z" fill="white"/>
<path d="M203.75 51.343C203.602 50.381 203.454 49.493 203.343 48.568C202.085 50.603 199.939 51.75 197.201 51.75C193.205 51.75 190.393 49.604 190.393 45.793C190.393 42.056 193.501 39.651 198.829 39.651C200.642 39.651 202.048 39.91 203.195 40.206V39.244C203.195 36.506 201.419 34.915 198.496 34.915C196.239 34.915 194.574 35.655 193.057 36.728L191.503 33.768C193.464 32.436 195.832 31.548 198.755 31.548C203.824 31.548 206.969 34.36 206.969 39.207V45.793C206.969 47.902 207.154 49.826 207.376 51.343H203.75ZM198.052 48.605C201.049 48.605 203.158 46.829 203.195 43.795V42.944C202.085 42.611 200.827 42.426 199.273 42.426C195.795 42.426 194.278 43.758 194.278 45.719C194.278 47.421 195.647 48.605 198.052 48.605Z" fill="white"/>
<path d="M181.757 24H185.716V51.343H181.757V24Z" fill="white"/>
<path d="M167.81 31.511C173.508 31.511 176.912 36.025 176.912 41.649C176.912 47.347 173.175 51.824 167.736 51.824C164.554 51.824 162.297 50.455 160.891 48.235V58.965H156.932V32.029H160.743L160.854 35.322C162.26 32.991 164.628 31.511 167.81 31.511ZM166.811 48.272C170.215 48.272 172.842 45.719 172.842 41.686C172.842 37.579 170.4 35.063 167.033 35.063C163.629 35.063 160.891 37.542 160.891 41.686C160.891 45.83 163.407 48.272 166.811 48.272Z" fill="white"/>
<path d="M152.784 50.085C151.304 51.195 149.639 51.824 147.678 51.824C144.089 51.824 141.351 50.011 141.351 45.386V35.433H137.429L138.317 32.029H141.351V26.701H145.31V32.029H152.414V35.433H145.31V45.349C145.31 47.31 146.457 48.235 148.085 48.235C149.306 48.235 150.194 47.865 151.23 47.088L152.784 50.085Z" fill="white"/>
<path d="M133.837 32.029V51.343H130.026L129.878 48.346C128.472 50.677 126.289 51.824 123.477 51.824C119.37 51.824 116.521 49.012 116.521 43.425V32.029H120.48V42.944C120.48 46.496 122.108 48.161 124.883 48.161C127.547 48.161 129.841 46.459 129.841 42.204V32.029H133.837Z" fill="white"/>
<path d="M102.064 51.824C96.736 51.824 92 48.05 92 41.686C92 35.285 96.699 31.511 102.101 31.511C107.429 31.511 112.128 35.248 112.128 41.686C112.128 48.013 107.466 51.824 102.064 51.824ZM102.064 48.309C105.209 48.309 108.058 45.83 108.058 41.649C108.058 37.505 105.32 35.026 102.101 35.026C98.919 35.026 96.07 37.505 96.07 41.686C96.07 45.83 98.845 48.309 102.064 48.309Z" fill="white"/>
</svg>
