<svg width="329" height="83" viewBox="0 0 329 83" fill="none" xmlns="http://www.w3.org/2000/svg">
<path fill-rule="evenodd" clip-rule="evenodd" d="M76.8287 41.002L76.8273 41.0012C71.3368 37.8741 60.6412 31.7823 60.5989 31.5433C60.5716 31.3985 60.5439 31.2479 60.5152 31.0922L60.5147 31.0891C60.0825 28.7415 59.4392 25.2469 56.9302 23.3831C55.1652 22.0834 45.6244 17.6706 41.2441 15.6447C39.9068 15.0261 39.0504 14.6301 39.0433 14.613C36.1797 10.3768 33.6421 5.93799 31.4514 1.33334C29.371 2.86581 27.6789 4.84638 26.5062 7.12165C25.3335 9.39692 24.7117 11.9058 24.6889 14.4541C17.0491 15.5257 9.87858 18.7031 4.01535 23.615C19.221 20.2049 23.6006 23.3487 23.6006 23.3487C18.6223 24.2166 13.8253 25.8856 9.40426 28.2878C2.92265 31.7752 0 35.9627 0 35.9627C0 35.9627 14.7186 31.8439 26.0142 35.851C20.7467 36.5782 15.8503 38.9209 12.0285 42.5423C35.4404 45.3812 46.9862 65.2663 51.8441 81.3333C53.6302 52.7555 39.0915 41.9024 39.0915 41.9024C43.3131 42.1988 48.6231 45.4113 52.0196 50.1914C62.2477 49.0632 67.9987 52.0778 68.0933 52.1528C68.1085 52.1417 68.3424 52.0658 68.7384 51.9371C70.332 51.4197 74.5499 50.0502 77.7223 48.6195C77.3756 48.1084 75.9187 46.3347 75.0893 45.3426C75.2034 45.3512 78.3893 45.1665 79.9999 42.8172C80.0157 42.8172 78.7367 42.0887 76.8287 41.002ZM47.7608 30.1432C48.5163 29.9445 53.0546 28.7512 54.4113 29.2541C55.7278 29.7394 55.7542 33.4072 55.7542 33.4072C55.7542 33.4072 52.7481 33.8195 47.662 30.1689L47.6881 30.1623L47.7584 30.1438L47.7608 30.1432Z" fill="white"/>
<path d="M232.82 32.2436H235.738V31.208C235.738 28.9864 236.372 27.1775 237.589 25.9223C238.808 24.6654 240.576 24 242.766 24C244.757 24 246.381 24.5565 247.777 25.5223L248 25.6766L246.016 28.9889L245.751 28.7846C244.96 28.1747 244.113 27.8428 243.058 27.8428C242.175 27.8428 241.478 28.1167 241 28.6274C240.518 29.141 240.223 29.9313 240.223 31.0288V32.2436H246.629V36.1222H240.223V51.5341H235.738V36.1222H231.793L232.82 32.2436Z" fill="white"/>
<path d="M228.961 24.4659H224.476V51.534H228.961V24.4659Z" fill="white"/>
<path d="M191.219 51.9283H192.38L200.444 32.2435H195.575L191.681 43.1306L186.916 32.136H185.724L181.063 43.1309L177.065 32.2435H172.163L180.152 51.9283H181.35L186.284 40.1763L191.219 51.9283Z" fill="white"/>
<path fill-rule="evenodd" clip-rule="evenodd" d="M169.204 36.4441L169.519 36.465V31.9568H169.224C166.919 31.9568 164.197 32.5686 162.355 35.28L162.267 32.2435H157.936V51.534H162.421V42.2114C162.421 39.7491 163.348 38.2784 164.624 37.4349C165.919 36.5792 167.62 36.3389 169.204 36.4441Z" fill="white"/>
<path fill-rule="evenodd" clip-rule="evenodd" d="M141.103 46.7093C140.206 45.9084 139.61 44.7261 139.394 43.1471H153.844V42.8565C153.844 42.6862 153.852 42.5233 153.862 42.3521L153.862 42.3489C153.871 42.1806 153.88 42.004 153.88 41.8171C153.88 38.6599 152.934 36.1371 151.285 34.401C149.634 32.6634 147.304 31.7418 144.595 31.7418C139.228 31.7418 134.764 35.6704 134.764 41.853C134.764 44.9972 135.767 47.54 137.538 49.2976C139.309 51.0552 141.819 52 144.777 52C148.158 52 150.79 51.0075 152.929 48.7162L153.103 48.5294L150.623 45.5821L150.394 45.8029C148.737 47.3995 147.1 48.0138 145.068 48.0138C143.393 48.0138 142.06 47.5632 141.103 46.7093ZM144.558 35.5487C145.943 35.5487 147.029 36.0067 147.809 36.796C148.534 37.5287 149.015 38.5671 149.209 39.842H139.493C140.08 37.2161 142.028 35.5487 144.558 35.5487Z" fill="white"/>
<path fill-rule="evenodd" clip-rule="evenodd" d="M122.975 51.9283H124.106L134.007 32.2436H128.935L123.63 44.1105L118.254 32.2436H113.111L122.975 51.9283Z" fill="white"/>
<path fill-rule="evenodd" clip-rule="evenodd" d="M200.718 41.8888C200.718 48.2307 205.526 52 210.913 52C216.375 52 221.108 48.1929 221.108 41.8888C221.108 35.4765 216.337 31.7418 210.949 31.7418C205.489 31.7418 200.718 35.5118 200.718 41.8888ZM216.514 41.853C216.514 45.7517 213.835 48.0138 210.913 48.0138C207.919 48.0138 205.312 45.7529 205.312 41.8888C205.312 37.9913 207.99 35.7279 210.949 35.7279C213.94 35.7279 216.514 37.9865 216.514 41.853Z" fill="white"/>
<path fill-rule="evenodd" clip-rule="evenodd" d="M92 41.8888C92 48.2307 96.8085 52 102.195 52C107.657 52 112.391 48.1929 112.391 41.8888C112.391 35.4765 107.62 31.7418 102.232 31.7418C96.7713 31.7418 92 35.5118 92 41.8888ZM107.797 41.853C107.797 45.7517 105.117 48.0138 102.195 48.0138C99.2019 48.0138 96.594 45.7529 96.594 41.8888C96.594 37.9913 99.2724 35.7279 102.232 35.7279C105.223 35.7279 107.797 37.9865 107.797 41.853Z" fill="white"/>
<path d="M275.912 53.3973C275.753 52.3657 275.594 51.4133 275.475 50.4213C274.126 52.6037 271.825 53.8338 268.888 53.8338C264.603 53.8338 261.587 51.5324 261.587 47.4453C261.587 43.4377 264.92 40.8585 270.634 40.8585C272.579 40.8585 274.086 41.1362 275.316 41.4537V40.422C275.316 37.4857 273.412 35.7794 270.277 35.7794C267.857 35.7794 266.071 36.573 264.444 37.7237L262.778 34.5493C264.881 33.1209 267.42 32.1685 270.555 32.1685C275.991 32.1685 279.364 35.1842 279.364 40.3823V47.4453C279.364 49.7071 279.562 51.7705 279.8 53.3973H275.912ZM269.801 50.461C273.015 50.461 275.277 48.5564 275.316 45.3026V44.39C274.126 44.0329 272.777 43.8345 271.11 43.8345C267.38 43.8345 265.754 45.2629 265.754 47.366C265.754 49.1913 267.222 50.461 269.801 50.461ZM305.417 24.0738V53.3973H301.369L301.25 49.8658C299.703 52.3657 297.203 53.9132 293.79 53.9132C287.68 53.9132 284.029 49.1119 284.029 43.0805C284.029 36.9698 288.037 32.1289 293.87 32.1289C297.242 32.1289 299.663 33.597 301.171 35.9381V24.0738H305.417ZM294.663 50.1436C298.036 50.1436 300.814 47.8421 301.171 43.9138V42.1282C300.814 38.2396 298.274 35.9381 294.862 35.9381C291.211 35.9381 288.394 38.7157 288.394 43.0409C288.394 47.4057 291.052 50.1436 294.663 50.1436ZM318.429 53.8735C314.223 53.8735 311.684 52.3657 309.62 50.342L312.081 47.5247C313.985 49.4293 315.93 50.2626 318.39 50.2626C320.731 50.2626 322.318 49.4293 322.318 47.6437C322.318 42.9218 310.414 46.5724 310.414 38.557C310.414 34.9858 313.588 32.2479 318.548 32.2479C322.08 32.2479 324.659 33.478 326.484 35.2239L324.223 38.0809C322.794 36.6921 321.009 35.8191 318.668 35.8191C316.009 35.8191 314.739 36.8905 314.739 38.3189C314.739 42.6441 326.643 39.43 326.643 47.366C326.643 51.4927 322.913 53.8735 318.429 53.8735Z" fill="#D34037"/>
</svg>
