<?xml version="1.0" encoding="UTF-8"?><svg id="Layer_2" xmlns="http://www.w3.org/2000/svg" xmlns:xlink="http://www.w3.org/1999/xlink" viewBox="0 0 210 50"><defs><style>.cls-1{clip-path:url(#clippath-2);}.cls-2{fill:none;}.cls-2,.cls-3,.cls-4{stroke-width:0px;}.cls-5{clip-path:url(#clippath-1);}.cls-3{fill:#fff;fill-rule:evenodd;}.cls-6{clip-path:url(#clippath);}.cls-4{fill:#d34037;}</style><clipPath id="clippath"><rect class="cls-2" width="210" height="50"/></clipPath><clipPath id="clippath-1"><rect class="cls-2" width="160" height="50"/></clipPath><clipPath id="clippath-2"><rect class="cls-2" width="160" height="50"/></clipPath></defs><g id="Layer_1-2"><g class="cls-6"><g class="cls-5"><g class="cls-1"><path class="cls-3" d="m48.02,24.79h0s0,0,0,0c-3.43-1.95-10.12-5.76-10.14-5.91-.02-.09-.03-.18-.05-.28h0s0,0,0,0c-.27-1.47-.67-3.65-2.24-4.82-1.1-.81-7.07-3.57-9.8-4.84h0c-.84-.39-1.37-.63-1.38-.64-1.79-2.65-3.38-5.42-4.74-8.3-1.3.96-2.36,2.2-3.09,3.62-.73,1.42-1.12,2.99-1.14,4.58-4.77.67-9.26,2.66-12.92,5.73,9.5-2.13,12.24-.17,12.24-.17-3.11.54-6.11,1.59-8.87,3.09C1.83,19.03,0,21.64,0,21.64c0,0,9.2-2.57,16.26-.07-3.29.45-6.35,1.92-8.74,4.18,14.63,1.77,21.85,14.2,24.88,24.24,1.12-17.86-7.97-24.64-7.97-24.64,2.64.19,5.96,2.19,8.08,5.18,6.39-.71,9.99,1.18,10.05,1.23,0,0,0,0,0,0,0,0,0,0,0,0,0,0,.16-.05.4-.13,1-.32,3.63-1.18,5.61-2.07-.22-.32-1.13-1.43-1.65-2.05.07,0,2.06-.11,3.07-1.58,0,0-.79-.45-1.98-1.13h0Zm-18.23-6.77s.03,0,.06-.02c.47-.12,3.31-.87,4.16-.56.82.3.84,2.6.84,2.6,0,0-1.88.26-5.06-2.02Zm37.8,1.72c-3.19,0-6.41,2.2-6.41,6.37s3.22,6.35,6.4,6.35,6.4-2.18,6.4-6.35-3.21-6.37-6.38-6.37Zm-.02,10.23c-1.76,0-3.54-1.32-3.54-3.85s1.79-3.91,3.56-3.91c2.07,0,3.51,1.59,3.51,3.87,0,2.55-1.78,3.89-3.54,3.89Zm62.71-3.86c0-4.17,3.22-6.37,6.41-6.37s6.38,2.2,6.38,6.37-3.21,6.35-6.39,6.35-6.39-2.17-6.39-6.35Zm2.85.02c0,2.53,1.78,3.85,3.54,3.85s3.53-1.33,3.53-3.89c0-2.28-1.44-3.87-3.51-3.87-1.77,0-3.56,1.34-3.56,3.91Zm-51.82,6.28h-.69l-.05-.09-6.14-12.26h3.2l3.37,7.48,3.37-7.48h3.13l-6.19,12.35Zm6.63-6.32c0,3.87,2.46,6.37,6.28,6.37,2.18,0,3.8-.65,5.1-2.07l.1-.11-1.54-1.83-.13.13c-.43.45-.95.8-1.52,1.04-.58.24-1.2.36-1.82.35-2.08,0-3.3-1.07-3.58-3.09h9.11v-.82c0-3.85-2.25-6.32-5.82-6.32s-6.16,2.67-6.16,6.35Zm9.1-1.25h-6.16c.37-1.66,1.57-2.73,3.2-2.73s2.71.99,2.96,2.73Zm27.57,7.58h-.71l-3.11-7.41-3.11,7.41h-.74l-5.01-12.35h3.05l2.52,6.87,2.94-6.94h.73l3.01,6.94,2.46-6.87h3.03l-5.06,12.35Zm-15.06-12.33h.12s.56,2.03.78,2.9c-.96-.23-2.4.04-3.45.65-1.13.65-1.75,1.61-1.75,2.79v5.74h-2.79v-12.11h2.69l.06,2.28c.46-.71,1.11-1.3,1.87-1.69.76-.4,1.61-.59,2.47-.57Zm45.56,12.08h-2.79v-9.69h-2.48l.64-2.41h1.84v-.66c0-2.83,1.65-4.52,4.4-4.52,1.12-.02,2.22.32,3.14.95l.13.09-1.24,2.07-.16-.13c-.47-.4-1.07-.62-1.7-.61-1.14,0-1.79.74-1.79,2.04v.78h4.03v2.41h-4.03v9.69Zm-9.86,0h2.79V15.17h-2.79v16.99Z"/></g></g><path class="cls-4" d="m173.62,32.2c-.1-.62-.19-1.2-.26-1.8-.82,1.32-2.21,2.06-3.98,2.06-2.59,0-4.42-1.39-4.42-3.86s2.02-3.98,5.47-3.98c1.18,0,2.09.17,2.83.36v-.62c0-1.78-1.15-2.81-3.05-2.81-1.46,0-2.54.48-3.53,1.18l-1.01-1.92c1.27-.86,2.81-1.44,4.7-1.44,3.29,0,5.33,1.82,5.33,4.97v4.27c0,1.37.12,2.62.26,3.6h-2.35Zm-3.7-1.78c1.94,0,3.31-1.15,3.34-3.12v-.55c-.72-.22-1.54-.34-2.54-.34-2.26,0-3.24.86-3.24,2.14,0,1.1.89,1.87,2.45,1.87Zm21.54-15.96v17.74h-2.45l-.07-2.14c-.94,1.51-2.45,2.45-4.51,2.45-3.7,0-5.9-2.9-5.9-6.55s2.42-6.62,5.95-6.62c2.04,0,3.5.89,4.42,2.3v-7.18h2.57Zm-6.5,15.77c2.04,0,3.72-1.39,3.94-3.77v-1.08c-.22-2.35-1.75-3.74-3.82-3.74-2.21,0-3.91,1.68-3.91,4.3s1.61,4.3,3.79,4.3Zm14.37,2.26c-2.54,0-4.08-.91-5.33-2.14l1.49-1.7c1.15,1.15,2.33,1.66,3.82,1.66s2.38-.5,2.38-1.58c0-2.86-7.2-.65-7.2-5.5,0-2.16,1.92-3.82,4.92-3.82,2.14,0,3.7.74,4.8,1.8l-1.37,1.73c-.86-.84-1.94-1.37-3.36-1.37-1.61,0-2.38.65-2.38,1.51,0,2.62,7.2.67,7.2,5.47,0,2.5-2.26,3.94-4.97,3.94Z"/></g></g></svg>