<svg width="150" height="80" viewBox="0 0 150 80" fill="none" xmlns="http://www.w3.org/2000/svg">
<path d="M19.0449 20.3284C22.2106 15.3179 27.9435 13.8663 27.9435 13.8663C27.9435 13.8663 17.0021 11.091 17.0021 0C17.0021 11.091 6.05436 13.8663 6.05436 13.8663C6.05436 13.8663 11.7894 15.3179 14.9572 20.3284H0V39.5371L3.40042 33.5885H10.1992V66.7399L23.7987 80V39.4093C20.3306 37.8505 15.3484 33.8875 13.5636 30.8647C16.6109 31.7616 20.6986 32.9411 23.8812 33.5906H34V20.3284H19.0449Z" fill="white"/>
<path fill-rule="evenodd" clip-rule="evenodd" d="M139.585 44.6784L144.449 51.5262H150L142.281 41.243L149.221 31.9092H143.928L139.692 38.1279L135.42 31.9092H129.869L136.995 41.4989L129.537 51.5262H134.828L139.585 44.6784Z" fill="white"/>
<path fill-rule="evenodd" clip-rule="evenodd" d="M114.98 42.9973H129.641V42.7018C129.641 42.5285 129.65 42.363 129.659 42.1888L129.659 42.1854C129.669 42.0143 129.678 41.8348 129.678 41.6448C129.678 38.4342 128.718 35.8687 127.045 34.1032C125.369 32.3361 123.006 31.399 120.257 31.399C114.811 31.399 110.282 35.394 110.282 41.6813C110.282 44.8786 111.3 47.4645 113.097 49.2519C114.893 51.0392 117.44 52 120.442 52C123.872 52 126.542 50.9907 128.713 48.6606L128.89 48.4707L126.373 45.4735L126.141 45.698C124.46 47.3216 122.799 47.9464 120.737 47.9464C119.037 47.9464 117.685 47.4881 116.714 46.6197C115.804 45.8054 115.2 44.603 114.98 42.9973ZM115.081 39.6362H124.939C124.742 38.3398 124.254 37.2838 123.518 36.5387C122.727 35.736 121.625 35.2703 120.22 35.2703C117.653 35.2703 115.676 36.966 115.081 39.6362Z" fill="white"/>
<path fill-rule="evenodd" clip-rule="evenodd" d="M91.3155 49.0051L91.2264 51.5262H86.834V24H91.3844V34.4564C92.8765 32.5472 95.1294 31.399 97.9909 31.399C100.938 31.399 103.303 32.5467 104.926 34.4181C106.545 36.2848 107.412 38.8535 107.412 41.6813C107.412 47.423 103.544 52 97.917 52C94.9805 52 92.7706 50.8725 91.3155 49.0051ZM101.08 46.2472C102.109 45.1835 102.751 43.6377 102.751 41.7177C102.751 39.7542 102.151 38.1987 101.172 37.1375C100.194 36.078 98.8176 35.489 97.2153 35.489C95.5907 35.489 94.1375 36.0718 93.0904 37.1312C92.0438 38.1899 91.3844 39.7436 91.3844 41.7177C91.3844 43.6987 91.9928 45.2437 92.984 46.2906C93.9742 47.3365 95.3691 47.9099 96.9938 47.9099C98.6155 47.9099 100.05 47.311 101.08 46.2472Z" fill="white"/>
<path fill-rule="evenodd" clip-rule="evenodd" d="M68.0204 42.9973H82.6815V42.7018C82.6815 42.5285 82.6903 42.363 82.6996 42.1888L82.6998 42.1854C82.7089 42.0143 82.7185 41.8348 82.7185 41.6448C82.7185 38.4342 81.7586 35.8687 80.0849 34.1032C78.4097 32.3361 76.0459 31.399 73.2973 31.399C67.8516 31.399 63.3221 35.394 63.3221 41.6813C63.3221 44.8786 64.3405 47.4645 66.1372 49.2519C67.9338 51.0392 70.4803 52 73.4819 52C76.9125 52 79.5826 50.9907 81.7531 48.6606L81.93 48.4707L79.4138 45.4735L79.1813 45.698C77.5005 47.3216 75.8395 47.9464 73.7774 47.9464C72.0777 47.9464 70.7251 47.4881 69.7546 46.6197C68.8445 45.8054 68.24 44.603 68.0204 42.9973ZM68.1211 39.6362H77.9791C77.7819 38.3398 77.2939 37.2838 76.5588 36.5387C75.7669 35.736 74.6654 35.2703 73.2603 35.2703C70.6929 35.2703 68.7159 36.966 68.1211 39.6362Z" fill="white"/>
<path fill-rule="evenodd" clip-rule="evenodd" d="M50.0027 35.8535V45.3625C50.0027 47.7 50.7057 49.3744 51.9148 50.4605C53.1188 51.5421 54.7798 52 56.6172 52C58.6454 52 60.3693 51.3559 61.8933 50.2278L62.0962 50.0776L60.2656 46.5934L59.9829 46.8027C58.9871 47.5398 58.1623 47.8735 57.0235 47.8735C56.2661 47.8735 55.6569 47.6618 55.2379 47.26C54.8208 46.8599 54.5531 46.2339 54.5531 45.3261V35.8535H61.6437V31.9092H54.5531V26.6607H50.0027V31.9092H47.0426L46 35.8535H50.0027Z" fill="white"/>
</svg>
